# xmcd
#
# Track frame offsets:
#        150
#        17130
#        39417
#
# Disc length: 853 seconds
#
# Revision: 0
# Processed by: cddbd v1.5.1PL0 Copyright (c) Steve Scherf et al.
# Submitted via: ExactAudioCopy v0.95b2
#
DISCID=1a035303
DTITLE=m-flo - decafe-e.p.
DYEAR=2000
DGENRE=
TTITLE0=One Suger Dream[Edit Version]
TTITLE1=Brain-Spill[Blindpatient Edit Version]
TTITLE2=L.O.T.(Love Or True)[Brutus Instrumental Edition]
EXTD=
EXTT0=
EXTT1=
EXTT2=
PLAYORDER=
